#tb 0: 1/25
#media_type 0: video
#codec_id 0: rawvideo
#dimensions 0: 256x256
#sar 0: 1/1
0,          0,          0,        1,   262144, 0x24a4a21c
0,          1,          1,        1,   262144, 0xdd06b87c
0,          2,          2,        1,   262144, 0x83b30841
